<mxfile host="app.diagrams.net" agent="Mozilla/5.0 (X11; Ubuntu; Linux x86_64; rv:141.0) Gecko/20100101 Firefox/141.0" version="28.1.0">
  <diagram name="Page-1" id="zZrn1sfatI9cFAU5W_Cx">
    <mxGraphModel dx="1291" dy="662" grid="1" gridSize="10" guides="1" tooltips="1" connect="1" arrows="1" fold="1" page="1" pageScale="1" pageWidth="850" pageHeight="1100" math="0" shadow="0">
      <root>
        <mxCell id="0" />
        <mxCell id="1" parent="0" />
        <mxCell id="AFpNuyvy839d78JZ_Jgt-1" value="EMPLOYEE" style="whiteSpace=wrap;html=1;align=center;" vertex="1" parent="1">
          <mxGeometry x="130" y="450" width="100" height="40" as="geometry" />
        </mxCell>
        <mxCell id="AFpNuyvy839d78JZ_Jgt-2" value="Employee Number" style="ellipse;whiteSpace=wrap;html=1;align=center;fontStyle=4;" vertex="1" parent="1">
          <mxGeometry x="10" y="370" width="100" height="40" as="geometry" />
        </mxCell>
        <mxCell id="AFpNuyvy839d78JZ_Jgt-3" value="&lt;div&gt;Employee Passkey&lt;/div&gt;&lt;div&gt;Number&lt;/div&gt;" style="ellipse;whiteSpace=wrap;html=1;align=center;fontStyle=4;" vertex="1" parent="1">
          <mxGeometry x="130" y="360" width="100" height="60" as="geometry" />
        </mxCell>
        <mxCell id="AFpNuyvy839d78JZ_Jgt-4" value="" style="endArrow=none;html=1;rounded=0;" edge="1" parent="1" source="AFpNuyvy839d78JZ_Jgt-1" target="AFpNuyvy839d78JZ_Jgt-2">
          <mxGeometry relative="1" as="geometry">
            <mxPoint x="350" y="550" as="sourcePoint" />
            <mxPoint x="510" y="550" as="targetPoint" />
          </mxGeometry>
        </mxCell>
        <mxCell id="AFpNuyvy839d78JZ_Jgt-5" value="" style="endArrow=none;html=1;rounded=0;" edge="1" parent="1" source="AFpNuyvy839d78JZ_Jgt-1" target="AFpNuyvy839d78JZ_Jgt-3">
          <mxGeometry relative="1" as="geometry">
            <mxPoint x="270" y="520" as="sourcePoint" />
            <mxPoint x="270" y="480" as="targetPoint" />
          </mxGeometry>
        </mxCell>
        <mxCell id="AFpNuyvy839d78JZ_Jgt-6" value="Name" style="ellipse;whiteSpace=wrap;html=1;align=center;" vertex="1" parent="1">
          <mxGeometry x="10" y="450" width="100" height="40" as="geometry" />
        </mxCell>
        <mxCell id="AFpNuyvy839d78JZ_Jgt-7" value="Phone" style="ellipse;whiteSpace=wrap;html=1;align=center;" vertex="1" parent="1">
          <mxGeometry x="50" y="520" width="100" height="40" as="geometry" />
        </mxCell>
        <mxCell id="AFpNuyvy839d78JZ_Jgt-8" value="" style="endArrow=none;html=1;rounded=0;" edge="1" parent="1" source="AFpNuyvy839d78JZ_Jgt-1" target="AFpNuyvy839d78JZ_Jgt-6">
          <mxGeometry relative="1" as="geometry">
            <mxPoint x="204" y="553" as="sourcePoint" />
            <mxPoint x="140" y="510" as="targetPoint" />
          </mxGeometry>
        </mxCell>
        <mxCell id="AFpNuyvy839d78JZ_Jgt-9" value="" style="endArrow=none;html=1;rounded=0;" edge="1" parent="1" source="AFpNuyvy839d78JZ_Jgt-1" target="AFpNuyvy839d78JZ_Jgt-7">
          <mxGeometry relative="1" as="geometry">
            <mxPoint x="234" y="583" as="sourcePoint" />
            <mxPoint x="170" y="540" as="targetPoint" />
          </mxGeometry>
        </mxCell>
        <mxCell id="AFpNuyvy839d78JZ_Jgt-11" value="BankDetails" style="ellipse;whiteSpace=wrap;html=1;align=center;" vertex="1" parent="1">
          <mxGeometry x="250" y="390" width="100" height="40" as="geometry" />
        </mxCell>
        <mxCell id="AFpNuyvy839d78JZ_Jgt-12" value="" style="endArrow=none;html=1;rounded=0;" edge="1" parent="1" source="AFpNuyvy839d78JZ_Jgt-1" target="AFpNuyvy839d78JZ_Jgt-11">
          <mxGeometry relative="1" as="geometry">
            <mxPoint x="204" y="503" as="sourcePoint" />
            <mxPoint x="140" y="460" as="targetPoint" />
          </mxGeometry>
        </mxCell>
        <mxCell id="AFpNuyvy839d78JZ_Jgt-13" value="CLEANER" style="whiteSpace=wrap;html=1;align=center;" vertex="1" parent="1">
          <mxGeometry x="130" y="580" width="100" height="40" as="geometry" />
        </mxCell>
        <mxCell id="AFpNuyvy839d78JZ_Jgt-14" value="" style="endArrow=none;html=1;rounded=0;" edge="1" parent="1" source="AFpNuyvy839d78JZ_Jgt-1" target="AFpNuyvy839d78JZ_Jgt-13">
          <mxGeometry relative="1" as="geometry">
            <mxPoint x="280" y="564" as="sourcePoint" />
            <mxPoint x="329" y="540" as="targetPoint" />
          </mxGeometry>
        </mxCell>
        <mxCell id="AFpNuyvy839d78JZ_Jgt-15" value="" style="rounded=0;orthogonalLoop=1;jettySize=auto;html=1;endArrow=halfCircle;endFill=0;endSize=6;strokeWidth=1;sketch=0;fontSize=12;curved=1;" edge="1" parent="1" source="AFpNuyvy839d78JZ_Jgt-13">
          <mxGeometry relative="1" as="geometry">
            <mxPoint x="435" y="545" as="sourcePoint" />
            <mxPoint x="180" y="520" as="targetPoint" />
          </mxGeometry>
        </mxCell>
        <mxCell id="AFpNuyvy839d78JZ_Jgt-16" value="" style="ellipse;whiteSpace=wrap;html=1;align=center;aspect=fixed;fillColor=none;strokeColor=none;resizable=0;perimeter=centerPerimeter;rotatable=0;allowArrows=0;points=[];outlineConnect=1;" vertex="1" parent="1">
          <mxGeometry x="425" y="530" width="10" height="10" as="geometry" />
        </mxCell>
        <mxCell id="AFpNuyvy839d78JZ_Jgt-17" value="FLOOR" style="whiteSpace=wrap;html=1;align=center;" vertex="1" parent="1">
          <mxGeometry x="425" y="450" width="100" height="40" as="geometry" />
        </mxCell>
        <mxCell id="AFpNuyvy839d78JZ_Jgt-18" value="FloorNumber" style="ellipse;whiteSpace=wrap;html=1;align=center;fontStyle=4;" vertex="1" parent="1">
          <mxGeometry x="425" y="360" width="100" height="40" as="geometry" />
        </mxCell>
        <mxCell id="AFpNuyvy839d78JZ_Jgt-19" value="" style="endArrow=none;html=1;rounded=0;" edge="1" parent="1" source="AFpNuyvy839d78JZ_Jgt-17" target="AFpNuyvy839d78JZ_Jgt-18">
          <mxGeometry relative="1" as="geometry">
            <mxPoint x="235" y="500" as="sourcePoint" />
            <mxPoint x="235" y="470" as="targetPoint" />
          </mxGeometry>
        </mxCell>
        <mxCell id="AFpNuyvy839d78JZ_Jgt-20" value="ASSIGNED" style="shape=rhombus;perimeter=rhombusPerimeter;whiteSpace=wrap;html=1;align=center;" vertex="1" parent="1">
          <mxGeometry x="270" y="510" width="120" height="60" as="geometry" />
        </mxCell>
        <mxCell id="AFpNuyvy839d78JZ_Jgt-22" value="N" style="endArrow=none;html=1;rounded=0;entryX=0;entryY=0.5;entryDx=0;entryDy=0;" edge="1" parent="1" source="AFpNuyvy839d78JZ_Jgt-13" target="AFpNuyvy839d78JZ_Jgt-20">
          <mxGeometry relative="1" as="geometry">
            <mxPoint x="370" y="650" as="sourcePoint" />
            <mxPoint x="420" y="600" as="targetPoint" />
          </mxGeometry>
        </mxCell>
        <mxCell id="AFpNuyvy839d78JZ_Jgt-23" value="" style="endArrow=none;html=1;rounded=0;shape=link;exitX=1;exitY=0.5;exitDx=0;exitDy=0;" edge="1" parent="1" source="AFpNuyvy839d78JZ_Jgt-20" target="AFpNuyvy839d78JZ_Jgt-17">
          <mxGeometry relative="1" as="geometry">
            <mxPoint x="480" y="580" as="sourcePoint" />
            <mxPoint x="600" y="590" as="targetPoint" />
          </mxGeometry>
        </mxCell>
        <mxCell id="AFpNuyvy839d78JZ_Jgt-24" value="1" style="edgeLabel;html=1;align=center;verticalAlign=middle;resizable=0;points=[];" vertex="1" connectable="0" parent="AFpNuyvy839d78JZ_Jgt-23">
          <mxGeometry x="-0.1394" y="3" relative="1" as="geometry">
            <mxPoint as="offset" />
          </mxGeometry>
        </mxCell>
        <mxCell id="AFpNuyvy839d78JZ_Jgt-27" value="ROOM" style="shape=ext;margin=3;double=1;whiteSpace=wrap;html=1;align=center;" vertex="1" parent="1">
          <mxGeometry x="425" y="700" width="100" height="40" as="geometry" />
        </mxCell>
        <mxCell id="AFpNuyvy839d78JZ_Jgt-30" value="" style="endArrow=none;html=1;rounded=0;" edge="1" parent="1" source="AFpNuyvy839d78JZ_Jgt-27" target="AFpNuyvy839d78JZ_Jgt-70">
          <mxGeometry relative="1" as="geometry">
            <mxPoint x="234" y="583" as="sourcePoint" />
            <mxPoint x="380" y="720" as="targetPoint" />
          </mxGeometry>
        </mxCell>
        <mxCell id="AFpNuyvy839d78JZ_Jgt-32" value="N" style="endArrow=none;html=1;rounded=0;strokeWidth=0;" edge="1" parent="1" source="AFpNuyvy839d78JZ_Jgt-27" target="AFpNuyvy839d78JZ_Jgt-33">
          <mxGeometry relative="1" as="geometry">
            <mxPoint x="610" y="550" as="sourcePoint" />
            <mxPoint x="475" y="640" as="targetPoint" />
          </mxGeometry>
        </mxCell>
        <mxCell id="AFpNuyvy839d78JZ_Jgt-71" value="" style="edgeStyle=orthogonalEdgeStyle;rounded=0;orthogonalLoop=1;jettySize=auto;html=1;shape=link;" edge="1" parent="1" source="AFpNuyvy839d78JZ_Jgt-33" target="AFpNuyvy839d78JZ_Jgt-27">
          <mxGeometry relative="1" as="geometry" />
        </mxCell>
        <mxCell id="AFpNuyvy839d78JZ_Jgt-33" value="On" style="shape=rhombus;double=1;perimeter=rhombusPerimeter;whiteSpace=wrap;html=1;align=center;" vertex="1" parent="1">
          <mxGeometry x="415" y="580" width="120" height="60" as="geometry" />
        </mxCell>
        <mxCell id="AFpNuyvy839d78JZ_Jgt-34" value="1" style="endArrow=none;html=1;rounded=0;" edge="1" parent="1" source="AFpNuyvy839d78JZ_Jgt-17" target="AFpNuyvy839d78JZ_Jgt-33">
          <mxGeometry relative="1" as="geometry">
            <mxPoint x="500" y="730" as="sourcePoint" />
            <mxPoint x="500" y="670" as="targetPoint" />
          </mxGeometry>
        </mxCell>
        <mxCell id="AFpNuyvy839d78JZ_Jgt-36" value="Type" style="ellipse;whiteSpace=wrap;html=1;align=center;" vertex="1" parent="1">
          <mxGeometry x="550" y="700" width="100" height="40" as="geometry" />
        </mxCell>
        <mxCell id="AFpNuyvy839d78JZ_Jgt-37" value="Size" style="ellipse;whiteSpace=wrap;html=1;align=center;" vertex="1" parent="1">
          <mxGeometry x="550" y="770" width="100" height="40" as="geometry" />
        </mxCell>
        <mxCell id="AFpNuyvy839d78JZ_Jgt-38" value="" style="endArrow=none;html=1;rounded=0;" edge="1" parent="1" source="AFpNuyvy839d78JZ_Jgt-27" target="AFpNuyvy839d78JZ_Jgt-36">
          <mxGeometry relative="1" as="geometry">
            <mxPoint x="320" y="534" as="sourcePoint" />
            <mxPoint x="369" y="510" as="targetPoint" />
          </mxGeometry>
        </mxCell>
        <mxCell id="AFpNuyvy839d78JZ_Jgt-39" value="" style="endArrow=none;html=1;rounded=0;" edge="1" parent="1" source="AFpNuyvy839d78JZ_Jgt-27" target="AFpNuyvy839d78JZ_Jgt-37">
          <mxGeometry relative="1" as="geometry">
            <mxPoint x="570" y="746" as="sourcePoint" />
            <mxPoint x="610" y="730" as="targetPoint" />
          </mxGeometry>
        </mxCell>
        <mxCell id="AFpNuyvy839d78JZ_Jgt-40" value="NightlyRate" style="ellipse;whiteSpace=wrap;html=1;align=center;dashed=1;" vertex="1" parent="1">
          <mxGeometry x="425" y="780" width="100" height="40" as="geometry" />
        </mxCell>
        <mxCell id="AFpNuyvy839d78JZ_Jgt-41" value="" style="endArrow=none;html=1;rounded=0;" edge="1" parent="1" source="AFpNuyvy839d78JZ_Jgt-27" target="AFpNuyvy839d78JZ_Jgt-40">
          <mxGeometry relative="1" as="geometry">
            <mxPoint x="610" y="820" as="sourcePoint" />
            <mxPoint x="677" y="828" as="targetPoint" />
          </mxGeometry>
        </mxCell>
        <mxCell id="AFpNuyvy839d78JZ_Jgt-43" value="GUEST" style="whiteSpace=wrap;html=1;align=center;" vertex="1" parent="1">
          <mxGeometry x="160" y="880" width="100" height="40" as="geometry" />
        </mxCell>
        <mxCell id="AFpNuyvy839d78JZ_Jgt-44" value="GuestID" style="ellipse;whiteSpace=wrap;html=1;align=center;fontStyle=4;" vertex="1" parent="1">
          <mxGeometry x="30" y="810" width="100" height="40" as="geometry" />
        </mxCell>
        <mxCell id="AFpNuyvy839d78JZ_Jgt-45" value="" style="endArrow=none;html=1;rounded=0;" edge="1" parent="1" source="AFpNuyvy839d78JZ_Jgt-43" target="AFpNuyvy839d78JZ_Jgt-44">
          <mxGeometry relative="1" as="geometry">
            <mxPoint x="425" y="730" as="sourcePoint" />
            <mxPoint x="380" y="730" as="targetPoint" />
          </mxGeometry>
        </mxCell>
        <mxCell id="AFpNuyvy839d78JZ_Jgt-46" value="ArrivalDate" style="ellipse;whiteSpace=wrap;html=1;align=center;" vertex="1" parent="1">
          <mxGeometry x="30" y="890" width="100" height="40" as="geometry" />
        </mxCell>
        <mxCell id="AFpNuyvy839d78JZ_Jgt-48" value="STAYINGIN" style="shape=rhombus;perimeter=rhombusPerimeter;whiteSpace=wrap;html=1;align=center;" vertex="1" parent="1">
          <mxGeometry x="240" y="780" width="120" height="60" as="geometry" />
        </mxCell>
        <mxCell id="AFpNuyvy839d78JZ_Jgt-49" value="" style="endArrow=none;html=1;rounded=0;" edge="1" parent="1" source="AFpNuyvy839d78JZ_Jgt-43" target="AFpNuyvy839d78JZ_Jgt-46">
          <mxGeometry relative="1" as="geometry">
            <mxPoint x="243" y="974" as="sourcePoint" />
            <mxPoint x="180" y="940" as="targetPoint" />
          </mxGeometry>
        </mxCell>
        <mxCell id="AFpNuyvy839d78JZ_Jgt-51" value="N" style="endArrow=none;html=1;rounded=0;shape=link;" edge="1" parent="1" source="AFpNuyvy839d78JZ_Jgt-43" target="AFpNuyvy839d78JZ_Jgt-48">
          <mxGeometry relative="1" as="geometry">
            <mxPoint x="440" y="630" as="sourcePoint" />
            <mxPoint x="501" y="580" as="targetPoint" />
          </mxGeometry>
        </mxCell>
        <mxCell id="AFpNuyvy839d78JZ_Jgt-53" value="1" style="endArrow=none;html=1;rounded=0;" edge="1" parent="1" source="AFpNuyvy839d78JZ_Jgt-48" target="AFpNuyvy839d78JZ_Jgt-27">
          <mxGeometry relative="1" as="geometry">
            <mxPoint x="420" y="880" as="sourcePoint" />
            <mxPoint x="487" y="888" as="targetPoint" />
          </mxGeometry>
        </mxCell>
        <mxCell id="AFpNuyvy839d78JZ_Jgt-54" value="PayingFor" style="shape=rhombus;perimeter=rhombusPerimeter;whiteSpace=wrap;html=1;align=center;" vertex="1" parent="1">
          <mxGeometry x="305" y="870" width="120" height="60" as="geometry" />
        </mxCell>
        <mxCell id="AFpNuyvy839d78JZ_Jgt-55" value="1" style="endArrow=none;html=1;rounded=0;entryX=0.5;entryY=0;entryDx=0;entryDy=0;" edge="1" parent="1" source="AFpNuyvy839d78JZ_Jgt-43" target="AFpNuyvy839d78JZ_Jgt-54">
          <mxGeometry relative="1" as="geometry">
            <mxPoint x="380" y="945" as="sourcePoint" />
            <mxPoint x="486" y="890" as="targetPoint" />
          </mxGeometry>
        </mxCell>
        <mxCell id="AFpNuyvy839d78JZ_Jgt-56" value="N" style="endArrow=none;html=1;rounded=0;entryX=0.5;entryY=1;entryDx=0;entryDy=0;" edge="1" parent="1" source="AFpNuyvy839d78JZ_Jgt-43" target="AFpNuyvy839d78JZ_Jgt-54">
          <mxGeometry x="-0.0016" relative="1" as="geometry">
            <mxPoint x="290" y="970" as="sourcePoint" />
            <mxPoint x="395" y="950" as="targetPoint" />
            <mxPoint as="offset" />
          </mxGeometry>
        </mxCell>
        <mxCell id="AFpNuyvy839d78JZ_Jgt-57" value="&lt;div&gt;Assumes a guest&#39;s bill can only be paid for by themselves or one other guest&lt;/div&gt;&lt;div&gt;Assumes each room can only house at most one guest&lt;/div&gt;" style="text;html=1;align=center;verticalAlign=middle;resizable=0;points=[];autosize=1;strokeColor=none;fillColor=none;" vertex="1" parent="1">
          <mxGeometry x="20" y="935" width="430" height="40" as="geometry" />
        </mxCell>
        <mxCell id="AFpNuyvy839d78JZ_Jgt-58" value="ROOMSERVICEITEM" style="whiteSpace=wrap;html=1;align=center;" vertex="1" parent="1">
          <mxGeometry x="700" y="450" width="140" height="40" as="geometry" />
        </mxCell>
        <mxCell id="AFpNuyvy839d78JZ_Jgt-59" value="MenuNumber" style="ellipse;whiteSpace=wrap;html=1;align=center;fontStyle=4;" vertex="1" parent="1">
          <mxGeometry x="740" y="380" width="100" height="40" as="geometry" />
        </mxCell>
        <mxCell id="AFpNuyvy839d78JZ_Jgt-60" value="" style="endArrow=none;html=1;rounded=0;" edge="1" parent="1" source="AFpNuyvy839d78JZ_Jgt-58" target="AFpNuyvy839d78JZ_Jgt-59">
          <mxGeometry relative="1" as="geometry">
            <mxPoint x="580" y="460" as="sourcePoint" />
            <mxPoint x="580" y="410" as="targetPoint" />
          </mxGeometry>
        </mxCell>
        <mxCell id="AFpNuyvy839d78JZ_Jgt-61" value="ORDERS" style="shape=rhombus;perimeter=rhombusPerimeter;whiteSpace=wrap;html=1;align=center;" vertex="1" parent="1">
          <mxGeometry x="590" y="550" width="120" height="60" as="geometry" />
        </mxCell>
        <mxCell id="AFpNuyvy839d78JZ_Jgt-62" value="N" style="endArrow=none;html=1;rounded=0;" edge="1" parent="1" source="AFpNuyvy839d78JZ_Jgt-27" target="AFpNuyvy839d78JZ_Jgt-61">
          <mxGeometry relative="1" as="geometry">
            <mxPoint x="560" y="740" as="sourcePoint" />
            <mxPoint x="560" y="680" as="targetPoint" />
          </mxGeometry>
        </mxCell>
        <mxCell id="AFpNuyvy839d78JZ_Jgt-63" value="M" style="endArrow=none;html=1;rounded=0;" edge="1" parent="1" source="AFpNuyvy839d78JZ_Jgt-61" target="AFpNuyvy839d78JZ_Jgt-58">
          <mxGeometry relative="1" as="geometry">
            <mxPoint x="620" y="762" as="sourcePoint" />
            <mxPoint x="747" y="660" as="targetPoint" />
          </mxGeometry>
        </mxCell>
        <mxCell id="AFpNuyvy839d78JZ_Jgt-64" value="Employee" style="ellipse;whiteSpace=wrap;html=1;align=center;" vertex="1" parent="1">
          <mxGeometry x="570" y="470" width="100" height="40" as="geometry" />
        </mxCell>
        <mxCell id="AFpNuyvy839d78JZ_Jgt-65" value="" style="endArrow=none;html=1;rounded=0;" edge="1" parent="1" source="AFpNuyvy839d78JZ_Jgt-61" target="AFpNuyvy839d78JZ_Jgt-64">
          <mxGeometry relative="1" as="geometry">
            <mxPoint x="490" y="510" as="sourcePoint" />
            <mxPoint x="490" y="460" as="targetPoint" />
          </mxGeometry>
        </mxCell>
        <mxCell id="AFpNuyvy839d78JZ_Jgt-66" value="DateTime" style="ellipse;whiteSpace=wrap;html=1;align=center;" vertex="1" parent="1">
          <mxGeometry x="720" y="550" width="100" height="40" as="geometry" />
        </mxCell>
        <mxCell id="AFpNuyvy839d78JZ_Jgt-68" value="" style="endArrow=none;html=1;rounded=0;" edge="1" parent="1" source="AFpNuyvy839d78JZ_Jgt-66" target="AFpNuyvy839d78JZ_Jgt-61">
          <mxGeometry relative="1" as="geometry">
            <mxPoint x="664" y="644" as="sourcePoint" />
            <mxPoint x="650" y="600" as="targetPoint" />
          </mxGeometry>
        </mxCell>
        <mxCell id="AFpNuyvy839d78JZ_Jgt-69" value="Assumes a cleaner can only be assigned to one floor" style="text;html=1;align=center;verticalAlign=middle;resizable=0;points=[];autosize=1;strokeColor=none;fillColor=none;" vertex="1" parent="1">
          <mxGeometry x="60" y="630" width="300" height="30" as="geometry" />
        </mxCell>
        <mxCell id="AFpNuyvy839d78JZ_Jgt-70" value="&lt;span style=&quot;border-bottom: 1px dotted;&quot;&gt;RoomNumber&lt;/span&gt;" style="ellipse;whiteSpace=wrap;html=1;align=center;" vertex="1" parent="1">
          <mxGeometry x="290" y="700" width="100" height="40" as="geometry" />
        </mxCell>
      </root>
    </mxGraphModel>
  </diagram>
</mxfile>
